# xmcd
#
# Track frame offsets: 
#        150
#        15798
#        30472
#        46947
#        64142
#
# Disc length: 1041 seconds
#
# Revision: 0
# Processed by: cddbd v1.5.2PL0 Copyright (c) Steve Scherf et al.
# Submitted via: ExactAudioCopyFreeDBPlugin 1.0
#
DISCID=2e040f05
DTITLE=Wristshakers - Rhythm and Blues Band
DYEAR=1995
DGENRE=Blues
TTITLE0=Jealouse man
TTITLE1=What it is
TTITLE2=Don`t bring me no flowers
TTITLE3=Here I am
TTITLE4=Stepping stone
EXTD=
EXTT0=
EXTT1=
EXTT2=
EXTT3=
EXTT4=
PLAYORDER=
